<svg width="54" height="53" viewBox="0 0 54 53" fill="none" xmlns="http://www.w3.org/2000/svg">
<path d="M26.9673 0.333313C12.5353 0.333313 0.833984 12.0346 0.833984 26.4666C0.833984 40.8986 12.5353 52.6 26.9673 52.6C41.3993 52.6 53.1007 40.8986 53.1007 26.4666C53.1007 12.0346 41.3993 0.333313 26.9673 0.333313ZM26.9673 48.4613C14.818 48.4613 4.97266 38.616 4.97266 26.4666C4.97266 14.3173 14.818 4.47198 26.9673 4.47198C39.1167 4.47198 48.962 14.3173 48.962 26.4666C48.962 38.616 39.1167 48.4613 26.9673 48.4613Z" fill="#061C29"/>
<path d="M30.4026 30.1573L30.168 30.7653C30.5093 31.2666 30.5946 31.9173 30.328 32.504L27.9813 37.7413C27.6933 38.3813 27.0533 38.7973 26.3386 38.7973C26.0826 38.7973 25.8373 38.744 25.6026 38.6373L24.5253 38.1573C24.088 37.9653 23.7573 37.6026 23.5866 37.1653C23.416 36.7173 23.4266 36.2266 23.6293 35.7893L25.9759 30.552C26.2106 30.0187 26.7013 29.656 27.256 29.5386L27.5546 28.9306C27.3733 28.9093 27.2026 28.8773 27.0213 28.8773C24.12 28.8773 21.752 31.224 21.752 34.136C21.752 37.0373 24.0986 39.4053 27 39.4053C29.9013 39.4053 32.2693 37.0586 32.2693 34.1573C32.2693 32.5466 31.544 31.128 30.4026 30.168V30.1573Z" fill="#061C29"/>
<path d="M24.1842 36.0334L26.5275 30.795C26.7888 30.2108 27.475 29.9568 28.0495 30.2138L29.1206 30.6929C29.7048 30.9542 29.9587 31.6404 29.7017 32.2149L27.3585 37.4533C27.0971 38.0376 26.411 38.2915 25.8365 38.0345L24.7557 37.5511C24.1715 37.2897 23.9175 36.6036 24.1745 36.0291L24.1842 36.0334Z" fill="#F8952B"/>
<path d="M25.2715 35.096L34.7861 15.4907L35.3515 15.7467L27.4155 36.056L25.2715 35.096Z" fill="#F8952B"/>
<path d="M44.9731 20.0987C44.9091 19.928 44.7811 19.7893 44.6424 19.704C44.6958 19.544 44.7064 19.3733 44.6424 19.2027C44.4931 18.776 44.0345 18.552 43.6078 18.712L42.2851 19.1813C41.0264 16.5467 39.1491 14.3387 36.8665 12.696L36.9944 12.4933C37.2398 12.12 37.1224 11.608 36.7491 11.3733C36.5678 11.256 36.3545 11.2133 36.1411 11.256C35.9278 11.2987 35.7464 11.4267 35.6184 11.608L35.5011 11.8C33.3251 10.5307 30.8504 9.74132 28.2584 9.54932L28.2264 8.17332C28.2264 7.73599 27.8531 7.37332 27.3944 7.37332C27.2131 7.37332 27.0531 7.44799 26.9251 7.55465C26.7758 7.44799 26.6051 7.37332 26.4345 7.38399C25.9865 7.38399 25.6238 7.76799 25.6345 8.21599L25.6558 9.55999C23.0744 9.76266 20.6211 10.5413 18.4558 11.8L18.3385 11.608C18.2211 11.4267 18.0398 11.2987 17.8264 11.256C17.6131 11.2133 17.3891 11.256 17.2078 11.3627C17.0265 11.48 16.8984 11.6613 16.8558 11.8747C16.8131 12.088 16.8558 12.3013 16.9731 12.4933L17.1011 12.6853C14.8185 14.328 12.9411 16.536 11.6824 19.1707L10.3491 18.7013C9.92243 18.552 9.47443 18.776 9.31443 19.2027C9.25043 19.3733 9.27177 19.544 9.31443 19.704C9.1651 19.8 9.0371 19.928 8.98377 20.1093C8.83444 20.5253 9.05844 20.9947 9.4851 21.144L14.1251 22.7867L14.3918 22.8293C14.7331 22.8293 15.0424 22.6053 15.1598 22.2853C15.2131 22.1253 15.2024 21.9547 15.1598 21.7947C15.3091 21.6987 15.4264 21.56 15.4904 21.3787C15.6398 20.952 15.4158 20.4933 14.9891 20.344L13.2184 19.7147C14.3384 17.4213 15.9918 15.5013 17.9758 14.0507L18.0291 14.136C18.1784 14.3707 18.4344 14.5093 18.7118 14.5093C18.8611 14.5093 19.0211 14.4667 19.1598 14.3813C19.5331 14.136 19.6398 13.6347 19.4051 13.2507L19.3518 13.1653C21.2718 12.0667 23.4265 11.3733 25.6985 11.192L25.7198 12.3653C25.7198 12.8027 26.0931 13.1653 26.5304 13.1653H26.5411C26.7225 13.1653 26.8824 13.0907 27.0104 12.984C27.1491 13.08 27.3091 13.1547 27.4904 13.1547H27.5011C27.9491 13.1547 28.3118 12.7707 28.3011 12.3227L28.2798 11.192C30.5411 11.384 32.6958 12.0667 34.6051 13.1653L34.5518 13.2507C34.3064 13.624 34.4131 14.136 34.7971 14.3813C34.9251 14.4667 35.0745 14.5093 35.2345 14.5093C35.5118 14.5093 35.7678 14.3707 35.9171 14.136L35.9705 14.0507C37.9651 15.4907 39.6078 17.4213 40.7278 19.7147L38.9571 20.344C38.5411 20.4933 38.3171 20.9627 38.4665 21.3893C38.5305 21.56 38.6478 21.6987 38.7971 21.7947C38.7544 21.9547 38.7438 22.1253 38.7971 22.2853C38.9144 22.6053 39.2238 22.8293 39.5651 22.8293L44.4718 21.144C44.6745 21.0693 44.8345 20.92 44.9305 20.728C45.0265 20.536 45.0371 20.312 44.9624 20.0987H44.9731Z" fill="#F8952B"/>
<path d="M11.3083 30.3066H13.335C13.7404 30.3066 13.9644 30.7013 13.9644 31.128C13.9644 31.4906 13.7724 31.928 13.335 31.928H11.3083V34.2213H14.9243C15.3297 34.2213 15.5537 34.648 15.5537 35.1493C15.5537 35.576 15.3617 36.056 14.9243 36.056H10.1243C9.66568 36.056 9.20703 35.8426 9.20703 35.4053V26.84C9.20703 26.4133 9.66568 26.1893 10.1243 26.1893H14.9243C15.3723 26.1893 15.5537 26.6586 15.5537 27.096C15.5537 27.5973 15.319 28.024 14.9243 28.024H11.3083V30.3066Z" fill="#061C29"/>
<path d="M38.9678 26.84C38.9678 26.4133 39.4264 26.1893 39.8851 26.1893H44.5678C45.0158 26.1893 45.1971 26.6586 45.1971 27.096C45.1971 27.5973 44.9624 28.024 44.5678 28.024H41.0798V30.3066H43.1171C43.5224 30.3066 43.7464 30.7013 43.7464 31.128C43.7464 31.4906 43.5544 31.928 43.1171 31.928H41.0798V35.4053C41.0798 35.832 40.5571 36.056 40.0238 36.056C39.4904 36.056 38.9678 35.8426 38.9678 35.4053V26.84Z" fill="#061C29"/>
</svg>
