<svg width="62" height="54" viewBox="0 0 62 54" fill="none" xmlns="http://www.w3.org/2000/svg">
<path d="M20.1932 31.896H18.3265V29.1547C18.3265 27.0853 16.6412 25.4107 14.5825 25.4107H10.3052V23.544H14.5825C17.6758 23.544 20.1932 26.0613 20.1932 29.1547V31.896Z" fill="#061C29"/>
<path d="M11.1164 51.992H4.44971V22.904C4.44971 22.1787 5.03637 21.5813 5.77237 21.5813H9.80437C10.5297 21.5813 11.127 22.168 11.127 22.904V51.992H11.1164Z" fill="#061C29"/>
<path d="M6.15625 15.4693H9.40958V13.784H6.15625V15.4693ZM6.15625 11.3093H9.40958V9.62401H6.15625V11.3093ZM7.78825 4.13068C6.89225 4.13068 6.15625 4.85601 6.15625 5.76268V7.14935H9.40958V5.76268C9.40958 4.86668 8.68425 4.13068 7.77758 4.13068H7.78825ZM6.15625 20.9627H9.40958V17.9547H6.15625V20.9627Z" fill="#061C29"/>
<path d="M9.48399 9.16533H6.07066C5.64399 9.16533 5.29199 8.81334 5.29199 8.38667C5.29199 7.96001 5.64399 7.608 6.07066 7.608H9.48399C9.91066 7.608 10.2627 7.96001 10.2627 8.38667C10.2627 8.81334 9.91066 9.16533 9.48399 9.16533Z" fill="#F8952B"/>
<path d="M9.48399 13.3253H6.07066C5.64399 13.3253 5.29199 12.9733 5.29199 12.5467C5.29199 12.12 5.64399 11.768 6.07066 11.768H9.48399C9.91066 11.768 10.2627 12.12 10.2627 12.5467C10.2627 12.9733 9.91066 13.3253 9.48399 13.3253Z" fill="#F8952B"/>
<path d="M9.48399 17.4853H6.07066C5.64399 17.4853 5.29199 17.1333 5.29199 16.7067C5.29199 16.28 5.64399 15.928 6.07066 15.928H9.48399C9.91066 15.928 10.2627 16.28 10.2627 16.7067C10.2627 17.1333 9.91066 17.4853 9.48399 17.4853Z" fill="#F8952B"/>
<path d="M61.6122 53.848H0.566895V52.728C0.566895 52.3227 0.897561 51.992 1.30289 51.992H60.8762C61.2816 51.992 61.6122 52.3227 61.6122 52.728V53.848Z" fill="#061C29"/>
<path d="M1.91066 51.992H1.29199V25.816C1.29199 24.9093 2.02799 24.1733 2.93466 24.1733H4.44933V24.792H2.93466C2.36933 24.792 1.91066 25.2507 1.91066 25.816V51.992Z" fill="#061C29"/>
<path d="M4.44956 26.9146H1.60156V27.5333H4.44956V26.9146Z" fill="#061C29"/>
<path d="M4.44956 29.7413H1.60156V30.36H4.44956V29.7413Z" fill="#061C29"/>
<path d="M4.44956 32.568H1.60156V33.1866H4.44956V32.568Z" fill="#061C29"/>
<path d="M4.44956 35.4053H1.60156V36.024H4.44956V35.4053Z" fill="#061C29"/>
<path d="M4.44956 38.232H1.60156V38.8506H4.44956V38.232Z" fill="#061C29"/>
<path d="M4.44956 41.0693H1.60156V41.688H4.44956V41.0693Z" fill="#061C29"/>
<path d="M4.44956 43.896H1.60156V44.5146H4.44956V43.896Z" fill="#061C29"/>
<path d="M4.44956 46.7333H1.60156V47.352H4.44956V46.7333Z" fill="#061C29"/>
<path d="M4.44956 49.56H1.60156V50.1787H4.44956V49.56Z" fill="#061C29"/>
<path d="M12.5879 44.7813H25.9319V40.9733H12.5879V44.7813ZM19.2546 31.2773C15.5746 31.2773 12.5879 34.264 12.5879 37.944V38.488H25.9319V37.944C25.9319 34.264 22.9452 31.2773 19.2652 31.2773H19.2546ZM12.5879 51.992H25.9319V47.2667H12.5879V51.992Z" fill="#F8952B"/>
<path d="M25.9529 40.5147H12.5555C12.1289 40.5147 11.7769 40.1627 11.7769 39.736C11.7769 39.3093 12.1289 38.9573 12.5555 38.9573H25.9529C26.3795 38.9573 26.7315 39.3093 26.7315 39.736C26.7315 40.1627 26.3795 40.5147 25.9529 40.5147Z" fill="#061C29"/>
<path d="M25.9529 46.808H12.5555C12.1289 46.808 11.7769 46.456 11.7769 46.0293C11.7769 45.6026 12.1289 45.2506 12.5555 45.2506H25.9529C26.3795 45.2506 26.7315 45.6026 26.7315 46.0293C26.7315 46.456 26.3795 46.808 25.9529 46.808Z" fill="#061C29"/>
<path d="M39.3936 31.9493H36.5669V33.816H39.3936V31.9493Z" fill="#F8952B"/>
<path d="M39.3936 36.9413H36.5669V38.808H39.3936V36.9413Z" fill="#F8952B"/>
<path d="M60.3642 51.992H58.4975V35.5333C58.4975 34.584 57.7295 33.816 56.7802 33.816H54.9028V31.9493H56.7802C58.7535 31.9493 60.3642 33.56 60.3642 35.5333V51.992Z" fill="#F8952B"/>
<path d="M60.3642 40.5253H58.4975C58.4975 39.576 57.7295 38.808 56.7802 38.808H54.9028V36.9413H56.7802C58.7535 36.9413 60.3642 38.552 60.3642 40.5253Z" fill="#F8952B"/>
<path d="M36.919 52.3973L34.4016 15.256H31.1696L28.6416 52.3973L27.4043 52.312L30.007 14.008H35.5536L38.1563 52.312L36.919 52.3973Z" fill="#061C29"/>
<path d="M30.8146 14.432L30.3511 14.8418L35.1201 20.2359L35.5836 19.8262L30.8146 14.432Z" fill="#061C29"/>
<path d="M34.7403 14.4168L29.9751 19.8143L30.4389 20.2238L35.2041 14.8263L34.7403 14.4168Z" fill="#061C29"/>
<path d="M30.4152 19.802L29.9824 20.2441L35.4934 25.6389L35.9262 25.1969L30.4152 19.802Z" fill="#061C29"/>
<path d="M35.1383 19.8078L29.6255 25.2007L30.0581 25.643L35.571 20.2501L35.1383 19.8078Z" fill="#061C29"/>
<path d="M30.0409 25.1947L29.6362 25.6627L35.8732 31.0558L36.2779 30.5878L30.0409 25.1947Z" fill="#061C29"/>
<path d="M35.5164 25.1876L29.2822 30.584L29.6871 31.0517L35.9213 25.6554L35.5164 25.1876Z" fill="#061C29"/>
<path d="M29.6633 30.5651L29.2847 31.0543L36.2521 36.4471L36.6308 35.9579L29.6633 30.5651Z" fill="#061C29"/>
<path d="M35.8827 30.5714L28.9199 35.9703L29.299 36.4592L36.2618 31.0603L35.8827 30.5714Z" fill="#061C29"/>
<path d="M29.2938 35.9743L28.9385 36.4808L36.6316 41.8776L36.9869 41.3711L29.2938 35.9743Z" fill="#061C29"/>
<path d="M36.2766 35.9386L28.5835 41.3354L28.9388 41.8419L36.6319 36.4451L36.2766 35.9386Z" fill="#061C29"/>
<path d="M28.9019 41.3465L28.5688 41.8679L37.0097 47.2598L37.3427 46.7384L28.9019 41.3465Z" fill="#061C29"/>
<path d="M36.6439 41.3504L28.2168 46.7439L28.5503 47.265L36.9774 41.8715L36.6439 41.3504Z" fill="#061C29"/>
<path d="M28.5491 46.7342L28.2368 47.2682L37.3892 52.6208L37.7016 52.0867L28.5491 46.7342Z" fill="#061C29"/>
<path d="M37.0291 46.7355L27.8628 52.0854L28.1746 52.6197L37.341 47.2698L37.0291 46.7355Z" fill="#061C29"/>
<path d="M36.5671 11.5013H29.0044V13.5173H36.5671V11.5013Z" fill="#061C29"/>
<path d="M31.1266 0.333344C31.6279 0.685344 32.1293 1.74135 32.1293 3.20268C32.1293 5.60268 28.1079 7.73601 30.8599 10.9573H31.9266C31.2333 9.47468 32.2786 7.41601 32.9613 6.11468C33.8999 7.34134 34.6893 9.45334 33.9426 10.9573H34.8919C37.5693 7.41601 35.2546 2.18934 31.1266 0.333344Z" fill="#F8952B"/>
<path d="M39.1904 30.9146V51.9813H44.5771V44.6213C44.5771 44.1733 44.9398 43.8106 45.3878 43.8106C45.8358 43.8106 46.1984 44.1733 46.1984 44.6213V51.9813H47.9051V44.6213C47.9051 44.1733 48.2678 43.8106 48.7158 43.8106C49.1638 43.8106 49.5264 44.1733 49.5264 44.6213V51.9813H54.9131V30.9146H39.1904ZM46.2518 37.8693H41.2598V32.8773H46.2518V37.8693ZM52.8438 37.8693H47.8518V32.8773H52.8438V37.8693Z" fill="#061C29"/>
<path d="M47.9907 10.4667H51.4573C52.2253 10.4667 52.844 11.0853 52.844 11.8533V30.9147H46.604V11.8533C46.604 11.0853 47.2227 10.4667 47.9907 10.4667Z" fill="#061C29"/>
<path d="M51.116 9.848H48.3213V8.68533C48.3213 8.35467 48.588 8.09866 48.908 8.09866H50.5186C50.8493 8.09866 51.1053 8.36533 51.1053 8.68533V9.848H51.116Z" fill="#F8952B"/>
<path d="M44.5881 31.224C44.4175 31.224 44.2788 31.0853 44.2788 30.9147V11.5013C44.2788 11.3307 44.4175 11.192 44.5881 11.192C44.7588 11.192 44.8975 11.3307 44.8975 11.5013V30.9147C44.8975 31.0853 44.7588 31.224 44.5881 31.224Z" fill="#061C29"/>
<path d="M46.6039 13.0907H44.5879V13.7093H46.6039V13.0907Z" fill="#061C29"/>
<path d="M46.6039 17.9547H44.5879V18.5733H46.6039V17.9547Z" fill="#061C29"/>
<path d="M46.6039 22.808H44.5879V23.4267H46.6039V22.808Z" fill="#061C29"/>
<path d="M46.6039 27.672H44.5879V28.2907H46.6039V27.672Z" fill="#061C29"/>
</svg>
