<svg width="48" height="60" viewBox="0 0 48 60" fill="none" xmlns="http://www.w3.org/2000/svg">
<path d="M9.29099 57.3707C9.29099 57.552 9.29099 57.872 9.29099 58.288C12.9283 58.9493 16.875 59.3653 21.0137 59.504V48.0587H8.32032C8.73632 50.512 9.18432 53.9147 9.29099 57.3707ZM9.65366 49.1147H20.203V52.336C20.203 52.8373 19.8297 53.2533 19.3497 53.328V55.7067C19.3497 56.7733 18.4857 57.6373 17.419 57.6373H12.4163C11.3497 57.6373 10.4857 56.7733 10.4857 55.7067V53.328C10.0057 53.2533 9.63232 52.8373 9.63232 52.336V49.1147H9.65366ZM12.4697 35.6427L11.787 35.952L12.043 35.248C12.363 34.352 12.8857 33.392 13.5363 32.5173C9.58966 33.6587 4.86432 35.344 2.96566 36.0267C2.17632 36.3147 0.501655 37.7333 0.533655 43.504C0.544322 46 0.810989 52.464 1.16299 56.2613C3.38166 56.9973 5.81366 57.6267 8.40566 58.128C8.46966 58.1387 8.53366 58.1493 8.58699 58.16C8.59766 58.16 8.61899 58.16 8.62966 58.16C8.62966 56.2187 8.45899 53.7653 8.43766 53.136C8.22432 48.368 7.22166 44.2507 6.53899 42.064C6.40032 41.6267 6.25099 41.1787 6.08032 40.7307C6.60299 41.584 7.06166 42.7893 7.42432 44.0267H20.9923V43.5253C21.0457 43.0453 21.3443 42.0533 21.675 41.392C21.9523 40.848 22.219 40.3467 22.507 39.8667C20.6403 38.1173 18.3257 35.9307 16.939 34.5547C14.987 34.8213 13.3977 35.1947 12.459 35.6213L12.4697 35.6427ZM44.7257 36.0267C42.8377 35.3333 38.1017 33.648 34.155 32.5173C34.8057 33.392 35.3283 34.352 35.6483 35.2587L35.9043 35.9627L35.2217 35.6533C34.283 35.2267 32.6937 34.8533 30.7417 34.5867C29.931 35.3973 28.3523 36.976 26.6777 38.6507V44.0587H40.2457C40.6083 42.8107 41.067 41.6053 41.5897 40.7627C41.419 41.2107 41.2697 41.6587 41.131 42.096C40.4483 44.2827 39.4457 48.4 39.2323 53.168C39.2003 53.7973 39.0403 56.2507 39.0403 58.192C39.051 58.192 39.0723 58.192 39.083 58.192C39.147 58.1813 39.211 58.1707 39.2643 58.16C41.867 57.6587 44.299 57.0293 46.507 56.2933C46.8697 52.496 47.1257 46.032 47.1363 43.536C47.1683 37.7653 45.5257 36.3573 44.7043 36.0587L44.7257 36.0267ZM39.0403 58.1813L38.4003 57.3707C38.507 53.9147 38.955 50.512 39.371 48.0587H26.6777V59.504C30.827 59.3653 34.7737 58.9493 38.411 58.288C38.4003 57.872 38.4003 57.5413 38.411 57.3707L39.0403 58.1813ZM38.6137 53.1467C38.6137 53.648 38.2403 54.064 37.7603 54.1387V56.5173C37.7603 57.584 36.8963 58.448 35.8297 58.448H30.827C29.7603 58.448 28.8963 57.584 28.8963 56.5173V54.1387C28.4163 54.064 28.043 53.648 28.043 53.1467V49.9253H38.5923V53.1467H38.6137Z" fill="#061C29"/>
<path d="M23.84 35.1306C24.832 35.1306 25.7706 34.9599 26.624 34.6612C27.1253 34.1599 27.6373 33.6799 28.1386 33.1999C28.3626 32.9866 28.5866 32.7732 28.8106 32.5599C27.4773 33.3492 25.7493 33.8399 23.8506 33.8399C21.952 33.8399 20.224 33.3492 18.8906 32.5599C19.04 32.6986 19.1786 32.8372 19.328 32.9759C19.8933 33.5092 20.4586 34.0532 21.0133 34.6292C21.8773 34.9386 22.8373 35.1199 23.8506 35.1199L23.84 35.1306Z" fill="#061C29"/>
<path d="M17.4405 31.5787C17.4405 31.5787 17.4405 31.5573 17.4405 31.5467C17.4405 31.536 17.4405 31.5253 17.4405 31.5147C17.5258 31.0027 17.6005 30.448 17.6645 29.8507C15.3391 30.32 13.1631 33.04 12.3418 35.3547C13.3871 34.8853 15.1365 34.5013 17.0671 34.2453C18.4218 35.6 20.8538 37.904 23.1685 40.0693C23.3818 39.6213 23.6058 39.184 23.8405 38.7787C22.0165 35.6427 19.4671 33.7013 17.4298 31.5787H17.4405Z" fill="#061C29"/>
<path d="M35.3494 35.3547C34.5174 33.04 32.3521 30.32 30.0268 29.8507C30.0908 30.4373 30.1654 31.0027 30.2508 31.5147C30.2508 31.5253 30.2508 31.536 30.2508 31.5467C30.2508 31.5467 30.2508 31.568 30.2508 31.5787C27.5841 34.352 24.5761 36.3787 21.9734 41.5627C21.6428 42.2133 21.3761 43.1733 21.3228 43.5893C23.6268 41.232 29.1308 35.728 30.6241 34.2347C32.5548 34.4907 34.2934 34.8747 35.3494 35.344V35.3547Z" fill="#061C29"/>
<path d="M21.5468 43.8133L21.3228 44.048V59.5147C22.1548 59.536 22.9974 59.5573 23.8401 59.5573C24.6828 59.5573 25.5254 59.536 26.3574 59.5147V38.96C24.5441 40.784 22.6668 42.672 21.5468 43.8133Z" fill="#061C29"/>
<path d="M10.8271 53.3493V55.7067C10.8271 56.592 11.5525 57.3173 12.4378 57.3173H17.4405C18.3258 57.3173 19.0511 56.592 19.0511 55.7067V53.3493H10.8378H10.8271Z" fill="#F8952B"/>
<path d="M19.2008 53.0293H10.6675C10.2835 53.0293 9.97412 52.72 9.97412 52.336V49.4347H19.8941V52.336C19.8941 52.72 19.5848 53.0293 19.2008 53.0293Z" fill="#F8952B"/>
<path d="M28.5762 53.3496V55.7069C28.5762 56.5922 29.3015 57.3176 30.1868 57.3176H35.1895C36.0748 57.3176 36.8002 56.5922 36.8002 55.7069V53.3496H28.5868H28.5762Z" fill="#F8952B"/>
<path d="M36.9601 53.0296H28.4267C28.0427 53.0296 27.7334 52.7202 27.7334 52.3362V49.4349H37.6534V52.3362C37.6534 52.7202 37.3441 53.0296 36.9601 53.0296Z" fill="#F8952B"/>
<path d="M15.776 23.5147C15.872 23.5467 16.0214 23.568 16.192 23.5147C17.728 29.072 20.4374 32.1227 23.84 32.1227C27.2427 32.1227 29.9627 29.072 31.488 23.5147C31.6587 23.568 31.7974 23.5467 31.904 23.5147C32.9814 23.184 33.8134 20.2507 33.92 19.408C34.112 17.8827 33.888 16.9013 33.2907 16.656C33.1307 16.592 32.96 16.5813 32.7894 16.6347C32.832 16.496 32.8747 16.3467 32.9067 16.208C32.896 15.824 32.7787 15.4507 32.576 15.0987C32.5334 15.1413 32.48 15.184 32.4374 15.2267C32.288 15.3547 32.128 15.4827 31.968 15.5787C31.7334 15.7173 31.4774 15.8133 31.1894 15.8773C31.0507 16.3573 30.88 16.9867 30.9547 17.616C31.0614 18.5333 31.424 18.6293 31.4667 19.5467C31.4987 20.464 31.36 20.9333 31.5307 21.3387C31.7974 20.8587 31.7334 19.44 31.84 18.832C31.904 18.4587 32.1387 18.0853 32.3734 17.648C32.4267 17.6373 32.48 17.5947 32.5227 17.552C32.736 17.2747 32.96 17.136 33.0987 17.1893C33.28 17.264 33.5787 17.8187 33.3867 19.3547C33.2374 20.528 32.3734 22.8107 31.7654 22.992C31.7334 23.0027 31.6694 23.024 31.5627 22.896C31.4987 22.8213 31.392 22.7787 31.2854 22.8C31.1787 22.8213 31.104 22.9067 31.072 23.0027C30.24 26.2027 28.192 31.568 23.8614 31.568C19.5307 31.568 17.4827 26.2027 16.6507 23.0027C16.6294 22.896 16.544 22.8213 16.4374 22.8C16.416 22.8 16.3947 22.8 16.3734 22.8C16.288 22.8 16.2134 22.832 16.16 22.896C16.0534 23.024 15.9894 23.0027 15.9574 22.992C15.36 22.8107 14.4854 20.528 14.336 19.3547C14.144 17.8187 14.4427 17.264 14.624 17.1893C14.7627 17.136 14.9867 17.2747 15.2 17.552C15.232 17.5947 15.2854 17.616 15.328 17.616C15.5734 18.064 15.808 18.4587 15.872 18.832C15.9787 19.44 15.904 20.8693 16.1814 21.3387C16.352 20.9333 16.2134 20.4533 16.2454 19.5467C16.2774 18.6293 16.6507 18.5333 16.7574 17.616C16.832 16.9867 16.6614 16.3573 16.5227 15.8773C16.2347 15.8133 15.9787 15.7067 15.7334 15.568C15.5627 15.472 15.4134 15.3547 15.264 15.2267C15.2214 15.184 15.168 15.152 15.1254 15.0987C14.9227 15.4507 14.8054 15.824 14.7947 16.208C14.8267 16.3573 14.8694 16.496 14.912 16.6347C14.7414 16.5813 14.5707 16.592 14.4107 16.656C13.8134 16.9013 13.5894 17.8827 13.7814 19.408C13.888 20.2507 14.72 23.1947 15.7974 23.5147H15.776Z" fill="#061C29"/>
<path d="M35.0507 12.8054C35.0507 12.4427 35.0401 12.0907 35.0081 11.7387C34.8161 11.7067 34.6241 11.6747 34.4427 11.632C30.4961 10.7467 27.5414 7.06669 27.5414 2.68269C27.5414 2.50136 27.5414 2.32003 27.5521 2.13869C27.5627 1.94669 27.5841 1.75469 27.6054 1.56269C27.2534 1.42403 26.8907 1.31736 26.5174 1.22136L25.7707 10.8107C25.7281 11.3547 25.2694 11.7814 24.7254 11.7814H22.9547C22.4107 11.7814 21.9521 11.3547 21.9094 10.8107L21.1627 1.22136C20.7894 1.31736 20.4267 1.42403 20.0747 1.56269C20.1067 1.75469 20.1174 1.94669 20.1281 2.13869C20.1387 2.32003 20.1387 2.50136 20.1387 2.68269C20.1387 7.07736 17.1841 10.7467 13.2374 11.632C13.0454 11.6747 12.8641 11.7174 12.6721 11.7387C12.6401 12.0907 12.6294 12.4427 12.6294 12.8054C12.6294 13.2427 12.6721 13.8507 12.6614 13.7227C12.6614 13.7227 12.6827 13.7227 12.6934 13.7227C13.7174 13.424 15.5307 13.104 17.6427 12.8587L17.5787 12.1547C17.5361 11.7174 17.8667 11.3334 18.3041 11.2907L19.6801 11.1734C20.1174 11.1307 20.5014 11.4614 20.5441 11.8987L20.6081 12.592C21.6854 12.5174 22.7734 12.4747 23.8401 12.4747C24.9067 12.4747 25.9947 12.5174 27.0721 12.592L27.1361 11.8987C27.1787 11.4614 27.5627 11.1414 28.0001 11.1734L29.3761 11.2907C29.8134 11.3334 30.1334 11.7174 30.1014 12.1547L30.0374 12.8587C32.1494 13.104 33.9627 13.4347 34.9867 13.7227C34.9867 13.7227 35.0081 13.7227 35.0187 13.7227C35.0187 13.8507 35.0614 13.2427 35.0614 12.8054H35.0507Z" fill="#F8952B"/>
<path d="M35.6059 14.3307C35.4565 14.256 35.2432 14.1813 34.9872 14.1067C33.0352 13.5413 28.1925 12.8587 23.8405 12.8587C19.4885 12.8587 14.6565 13.5413 12.6939 14.1067C12.4272 14.1813 12.2139 14.256 12.0752 14.3307C12.2032 14.448 12.4592 14.64 12.7792 14.832C13.5152 15.2907 14.5925 15.824 15.1792 15.9093C16.0219 16.0267 19.6592 15.9093 23.8405 15.9093C28.0219 15.9093 31.6485 16.0267 32.5019 15.9093C33.0992 15.824 34.1659 15.2907 34.9019 14.832C35.2219 14.64 35.4779 14.448 35.6059 14.3307Z" fill="#F8952B"/>
<path d="M12.6299 12.8053C12.6299 12.8053 12.6299 12.752 12.6299 12.72H12.5979C12.3099 12.72 12.0752 12.9547 12.0752 13.2427V14.32C12.2245 14.2453 12.4379 14.1707 12.6939 14.096C12.6512 13.6693 12.6299 13.232 12.6299 12.7947V12.8053Z" fill="#F8952B"/>
<path d="M35.0513 12.8051C35.0513 12.8051 35.0513 12.7518 35.0513 12.7198H35.0833C35.3713 12.7198 35.606 12.9545 35.606 13.2425V14.3198C35.4566 14.2451 35.2433 14.1705 34.9873 14.0958C35.03 13.6691 35.0513 13.2318 35.0513 12.7945V12.8051Z" fill="#F8952B"/>
<path d="M22.9553 11.4613C22.5713 11.4613 22.2513 11.1627 22.2193 10.7787L21.4513 0.890664C21.4407 0.698664 21.5047 0.506664 21.6327 0.357331C21.7713 0.207998 21.9527 0.133331 22.1447 0.133331H25.5153C25.718 0.133331 25.8993 0.207998 26.0273 0.357331C26.166 0.506664 26.23 0.687998 26.2087 0.890664L25.4407 10.7787C25.4087 11.1627 25.0887 11.4613 24.7047 11.4613H22.934H22.9553Z" fill="#F8952B"/>
<path d="M27.8825 2.27708C27.8825 2.40508 27.8719 2.54375 27.8719 2.67175C27.8719 6.75708 30.6025 10.3518 34.3892 11.2691C33.8772 7.18375 31.3279 3.79175 27.8825 2.27708ZM13.2905 11.2691C17.0772 10.3518 19.8079 6.75708 19.8079 2.67175C19.8079 2.54375 19.8079 2.40508 19.7972 2.27708C16.3412 3.79175 13.8025 7.18375 13.2905 11.2691Z" fill="#F8952B"/>
<path d="M7.53125 44.4H21.0139V47.7067H8.32058C8.05392 46.5013 7.78725 45.2747 7.53125 44.4Z" fill="#F8952B"/>
<path d="M39.3716 47.7067H26.6782V44.4H40.0969C39.7556 45.6267 39.5316 46.7253 39.3716 47.7067Z" fill="#F8952B"/>
</svg>
