<svg width="60" height="59" viewBox="0 0 60 59" fill="none" xmlns="http://www.w3.org/2000/svg">
<path d="M49.9459 28.9667H49.4126V45.4467H49.9459V28.9667Z" fill="#061C29"/>
<path d="M59.8546 58.0868H0.633301V58.7908H59.8546V58.0868Z" fill="#061C29"/>
<path d="M54.7566 41.6922H45.626C44.3299 41.6922 43.2793 42.7428 43.2793 44.0389V49.4149C43.2793 50.7109 44.3299 51.7615 45.626 51.7615H54.7566C56.0527 51.7615 57.1033 50.7109 57.1033 49.4149V44.0389C57.1033 42.7428 56.0527 41.6922 54.7566 41.6922Z" fill="#F8952B"/>
<path d="M51.1399 51.7614H49.252V58.0867H51.1399V51.7614Z" fill="#061C29"/>
<path d="M44.2171 58.0867H42.3291L45.2944 51.7614H47.1824L44.2171 58.0867Z" fill="#061C29"/>
<path d="M56.1641 58.0867H58.0414L55.0867 51.7614H53.1987L56.1641 58.0867Z" fill="#061C29"/>
<path d="M4.67632 22.9932H4.13232V50.4066H4.67632V22.9932Z" fill="#061C29"/>
<path d="M1.70048 50.4172H7.12982C7.25782 50.4172 7.36449 50.5238 7.36449 50.6518V53.1158H1.46582V50.6518C1.46582 50.5238 1.57248 50.4172 1.70048 50.4172Z" fill="#061C29"/>
<path d="M6.23304 53.7134H2.5957V58.0974H6.23304V53.7134Z" fill="#061C29"/>
<path d="M8.14273 54.4494H6.2334V55.5907H8.14273C8.0574 55.2174 8.0574 54.8227 8.14273 54.4494Z" fill="#061C29"/>
<path d="M13.4541 54.4494C13.5394 54.8227 13.5394 55.2174 13.4541 55.5907H14.5634V54.4494H13.4541Z" fill="#061C29"/>
<path d="M15.0016 55.9641H14.5322V54.0974H15.0016C15.1296 54.0974 15.2256 54.1934 15.2256 54.3214V55.7401C15.2256 55.8681 15.1296 55.9641 15.0016 55.9641Z" fill="#061C29"/>
<path d="M10.3073 55.0149L10.8406 54.5242L9.58194 53.4042L9.29395 53.6815L10.3073 55.0149Z" fill="#F8952B"/>
<path d="M10.8081 54.5243L11.3094 55.0576L12.4188 53.8097L12.1521 53.511L10.8081 54.5243Z" fill="#F8952B"/>
<path d="M11.3102 55.0362L10.7769 55.5269L12.0249 56.6469L12.3235 56.3802L11.3102 55.0362Z" fill="#F8952B"/>
<path d="M10.7982 55.5269L10.3075 54.9935L9.1875 56.2522L9.45417 56.5402L10.7982 55.5269Z" fill="#F8952B"/>
<path d="M9.07055 56.6254C9.95589 57.5854 11.4492 57.6494 12.4092 56.7641C13.3692 55.8788 13.4332 54.3854 12.5479 53.4254C11.6625 52.4654 10.1692 52.4014 9.20922 53.2868C8.24922 54.1721 8.18522 55.6654 9.07055 56.6254ZM9.48655 56.2414C8.81455 55.5161 8.85722 54.3748 9.59322 53.7028C10.3186 53.0308 11.4599 53.0734 12.1319 53.8094C12.8039 54.5348 12.7612 55.6761 12.0252 56.3481C11.2999 57.0201 10.1586 56.9774 9.48655 56.2414Z" fill="#F8952B"/>
<path d="M10.2225 55.5588C10.5212 55.8788 11.0119 55.9001 11.3319 55.6014C11.6519 55.3028 11.6732 54.8121 11.3745 54.4921C11.0759 54.1721 10.5852 54.1508 10.2652 54.4494C9.94518 54.7481 9.92385 55.2388 10.2225 55.5588Z" fill="#061C29"/>
<path d="M14.6178 1.43611C10.2551 4.04944 6.77779 8.16678 5.06046 13.3721C3.34312 18.5774 3.67379 23.9641 5.61512 28.6574C5.94579 29.4574 6.31912 30.2361 6.74579 30.9934C6.86312 31.1961 7.14046 31.2388 7.31112 31.0681L9.27379 29.1161L15.0231 23.3881L18.9485 21.1588L14.6391 19.7401L16.5378 13.9801L20.8471 15.3988L19.0338 11.2708L17.8285 3.24944L17.4125 0.508109C17.3805 0.273443 17.1245 0.134776 16.9111 0.230776C16.1218 0.582776 15.3538 0.988109 14.6178 1.42544V1.43611ZM13.2098 21.0948L8.04713 26.2468C7.27913 23.9641 6.94845 21.5321 7.10845 19.0681L12.6445 20.1241L13.2205 21.0948H13.2098ZM13.9245 14.7161L12.9751 17.5748H7.25779C7.41779 16.4974 7.66312 15.4201 8.01512 14.3534C8.36712 13.2868 8.80446 12.2734 9.32712 11.3134L13.9138 14.7161H13.9245ZM16.2071 12.0281L15.1618 12.4654L10.0951 10.0121C11.4391 7.94278 13.1565 6.18278 15.1298 4.80678L16.2071 12.0174V12.0281Z" fill="#F8952B"/>
<path d="M18.0327 14.4744L16.1313 20.227L18.2177 20.9165L20.119 15.164L18.0327 14.4744Z" fill="#061C29"/>
<path d="M18.9375 21.1587L28.3775 24.2734C28.7082 24.028 29.1135 23.8787 29.5615 23.8787C30.4682 23.8787 31.2148 24.476 31.4708 25.2867L47.2042 30.4814L49.1028 24.7214L20.8362 15.388L18.9375 21.148V21.1587ZM54.7668 26.6094L52.9215 26.0014L51.0228 31.7614L52.8682 32.3694C53.1775 32.476 53.5188 32.3054 53.6255 31.9854L55.1508 27.356C55.2575 27.0467 55.0868 26.7054 54.7775 26.5987L54.7668 26.6094Z" fill="#061C29"/>
<path d="M47.3639 31.5634L49.8779 23.9574C50.0017 23.5827 50.406 23.3793 50.7807 23.5032L52.2999 24.0053C52.6746 24.1291 52.878 24.5334 52.7542 24.9081L50.2402 32.5141C50.1164 32.8888 49.7121 33.0922 49.3374 32.9684L47.8182 32.4663C47.4435 32.3424 47.2401 31.9381 47.3639 31.5634Z" fill="#F8952B"/>
<path d="M32.6972 26.5776H31.4599C31.1826 27.3563 30.4466 27.9216 29.5719 27.9216C28.6972 27.9216 27.9612 27.3563 27.6839 26.5776H26.4466L17.9346 58.0976H19.9079L27.9079 28.4869H31.2572L39.2572 58.0976H41.2306L32.7186 26.5776H32.6972Z" fill="#061C29"/>
<path d="M38.0415 36.0068H21.0708V38.5668H38.0415V36.0068Z" fill="#061C29"/>
<path d="M31.2466 25.9054C31.2466 26.8334 30.4893 27.5908 29.5613 27.5908C28.6333 27.5908 27.876 26.8334 27.876 25.9054C27.876 24.9774 28.6333 24.2201 29.5613 24.2201C30.4893 24.2201 31.2466 24.9774 31.2466 25.9054Z" fill="#061C29"/>
<path d="M24.0776 38.9765L23.4248 40.0151L36.872 48.4669L37.5247 47.4283L24.0776 38.9765Z" fill="#061C29"/>
<path d="M35.0336 38.9854L21.5864 47.4372L22.2392 48.4758L35.6864 40.024L35.0336 38.9854Z" fill="#061C29"/>
<path d="M22.3562 47.6051L21.7554 48.6745L39.1265 58.4347L39.7274 57.3653L22.3562 47.6051Z" fill="#061C29"/>
<path d="M36.7474 47.61L19.3813 57.3793L19.9828 58.4484L37.3488 48.6791L36.7474 47.61Z" fill="#061C29"/>
</svg>
