<svg width="62" height="30" viewBox="0 0 62 30" fill="none" xmlns="http://www.w3.org/2000/svg">
<path d="M52.3708 16.2999L50.0518 16.3927L50.7685 2.09914H51.6624L52.3708 16.2999Z" fill="#061C29"/>
<path d="M53.8117 8.49087H48.6172V9.07273H53.8117V8.49087Z" fill="#061C29"/>
<path d="M48.7268 8.60875C48.6678 8.60875 48.6172 8.55815 48.6172 8.49912V7.36913C48.6172 7.3101 48.6678 7.25951 48.7268 7.25951C48.7858 7.25951 48.8364 7.3101 48.8364 7.36913V8.49912C48.8364 8.55815 48.7858 8.60875 48.7268 8.60875Z" fill="#061C29"/>
<path d="M49.7727 8.60895C49.7137 8.60895 49.6631 8.55835 49.6631 8.49932V7.36933C49.6631 7.3103 49.7137 7.2597 49.7727 7.2597C49.8317 7.2597 49.8823 7.3103 49.8823 7.36933V8.49932C49.8823 8.55835 49.8317 8.60895 49.7727 8.60895Z" fill="#061C29"/>
<path d="M52.6575 8.60895C52.5985 8.60895 52.5479 8.55835 52.5479 8.49932V7.36933C52.5479 7.3103 52.5985 7.2597 52.6575 7.2597C52.7165 7.2597 52.7671 7.3103 52.7671 7.36933V8.49932C52.7671 8.55835 52.7165 8.60895 52.6575 8.60895Z" fill="#061C29"/>
<path d="M53.6946 8.60895C53.6356 8.60895 53.585 8.55835 53.585 8.49932V7.36933C53.585 7.3103 53.6356 7.2597 53.6946 7.2597C53.7536 7.2597 53.8042 7.3103 53.8042 7.36933V8.49932C53.8042 8.55835 53.7536 8.60895 53.6946 8.60895Z" fill="#061C29"/>
<path d="M53.6937 7.47876H48.7268C48.6678 7.47876 48.6172 7.42816 48.6172 7.36913C48.6172 7.3101 48.6678 7.25951 48.7268 7.25951H53.6937C53.7527 7.25951 53.8033 7.3101 53.8033 7.36913C53.8033 7.42816 53.7527 7.47876 53.6937 7.47876Z" fill="#061C29"/>
<path d="M53.2317 4.98283H49.1924V5.4382H53.2317V4.98283Z" fill="#061C29"/>
<path d="M49.2855 5.07506C49.2349 5.07506 49.2012 5.0329 49.2012 4.99074V4.11373C49.2012 4.06314 49.2433 4.0294 49.2855 4.0294C49.3277 4.0294 49.3698 4.07157 49.3698 4.11373V4.99074C49.3698 5.04133 49.3277 5.07506 49.2855 5.07506Z" fill="#061C29"/>
<path d="M50.0951 5.07506C50.0445 5.07506 50.0107 5.0329 50.0107 4.99074V4.11373C50.0107 4.06314 50.0529 4.0294 50.0951 4.0294C50.1372 4.0294 50.1794 4.07157 50.1794 4.11373V4.99074C50.1794 5.04133 50.1372 5.07506 50.0951 5.07506Z" fill="#061C29"/>
<path d="M52.3382 5.07506C52.2876 5.07506 52.2539 5.0329 52.2539 4.99074V4.11373C52.2539 4.06314 52.296 4.0294 52.3382 4.0294C52.3804 4.0294 52.4225 4.07157 52.4225 4.11373V4.99074C52.4225 5.04133 52.3804 5.07506 52.3382 5.07506Z" fill="#061C29"/>
<path d="M53.1478 5.07506C53.0972 5.07506 53.0635 5.0329 53.0635 4.99074V4.11373C53.0635 4.06314 53.1056 4.0294 53.1478 4.0294C53.19 4.0294 53.2321 4.07157 53.2321 4.11373V4.99074C53.2321 5.04133 53.19 5.07506 53.1478 5.07506Z" fill="#061C29"/>
<path d="M53.1477 4.1902H49.2855C49.2349 4.1902 49.2012 4.14804 49.2012 4.10587C49.2012 4.06371 49.2433 4.02155 49.2855 4.02155H53.1477C53.1983 4.02155 53.232 4.06371 53.232 4.10587C53.232 4.14804 53.1899 4.1902 53.1477 4.1902Z" fill="#061C29"/>
<path d="M49.7211 5.16054L49.5645 5.32577L50.7701 6.46867L50.9267 6.30343L49.7211 5.16054Z" fill="#061C29"/>
<path d="M52.6941 5.17729L51.4873 6.31892L51.6438 6.48433L52.8506 5.34269L52.6941 5.17729Z" fill="#061C29"/>
<path d="M50.7686 0.0666046V2.0989H51.6624V0.0666046H50.7686ZM51.5191 1.82905H50.9119V0.285856H51.5191V1.82905Z" fill="#061C29"/>
<path d="M51.4346 1.75299H50.9961V0.353149H51.4346V1.75299Z" fill="#F8952B"/>
<path d="M5.90764 29.9689C6.99547 30.0195 51.1409 29.9183 52.7179 29.9689C51.1578 28.4679 50.9554 27.0764 51.4867 25.7356H0.670898C1.96111 27.7932 4.46564 29.3364 5.90764 29.9689Z" fill="#F8952B"/>
<path d="M44.3771 16.5107L39.0644 20.744H0.15571C0.0545168 21.8234 -0.0466726 23.9906 0.383398 25.1796H51.7557C52.3797 24.058 53.4676 22.9702 54.665 21.8824C57.49 19.3357 61.445 18.1888 61.9341 15.8024L44.3686 16.5107H44.3771ZM7.9813 24.1508C7.9813 24.4628 7.72832 24.7158 7.41631 24.7158H6.87661V23.8051H7.07056C7.20549 23.8051 7.31512 23.6954 7.31512 23.5605V23.434C7.31512 23.2991 7.20549 23.1895 7.07056 23.1895H5.6117C5.47678 23.1895 5.36716 23.2991 5.36716 23.434V23.5605C5.36716 23.6954 5.47678 23.8051 5.6117 23.8051H5.80565V24.7158H4.2709V23.8051H4.46485C4.59977 23.8051 4.7094 23.6954 4.7094 23.5605V23.434C4.7094 23.2991 4.59977 23.1895 4.46485 23.1895H3.00598C2.87106 23.1895 2.76143 23.2991 2.76143 23.434V23.5605C2.76143 23.6954 2.87106 23.8051 3.00598 23.8051H3.19993V24.7158H2.60964C2.29763 24.7158 2.04465 24.4628 2.04465 24.1508V22.7931C2.04465 22.4811 2.29763 22.2281 2.60964 22.2281H7.39944C7.71145 22.2281 7.96443 22.4811 7.96443 22.7931V24.1508H7.9813ZM45.3553 18.8382C45.3553 19.0237 45.2035 19.1755 45.018 19.1755H44.4783C44.2927 19.1755 44.1409 19.0237 44.1409 18.8382V18.7791C44.1409 18.5936 44.2927 18.4418 44.4783 18.4418H45.018C45.2035 18.4418 45.3553 18.5936 45.3553 18.7791V18.8382ZM47.4381 18.8382C47.4381 19.0237 47.2864 19.1755 47.1008 19.1755H46.5612C46.3756 19.1755 46.2238 19.0237 46.2238 18.8382V18.7791C46.2238 18.5936 46.3756 18.4418 46.5612 18.4418H47.1008C47.2864 18.4418 47.4381 18.5936 47.4381 18.7791V18.8382ZM49.521 18.8382C49.521 19.0237 49.3693 19.1755 49.1837 19.1755H48.6441C48.4585 19.1755 48.3067 19.0237 48.3067 18.8382V18.7791C48.3067 18.5936 48.4585 18.4418 48.6441 18.4418H49.1837C49.3693 18.4418 49.521 18.5936 49.521 18.7791V18.8382ZM54.4036 19.0405C54.353 19.0743 54.3024 19.108 54.2349 19.1249C54.2349 19.1417 54.2265 19.167 54.2181 19.1839C54.1 19.5381 53.8976 19.8923 53.6531 20.1874H54.2771V20.3729H54.041L53.4676 20.8199H51.4437L50.8703 20.3729H50.6342V20.1874H51.2582C51.0136 19.8923 50.8113 19.5381 50.6932 19.1839C50.6932 19.167 50.6848 19.1417 50.6763 19.1249C50.6089 19.108 50.5583 19.0743 50.5077 19.0405C50.4571 18.7285 50.5245 18.2816 50.6679 18.0286C50.9293 18.1551 51.2329 18.484 51.3678 18.7791C51.3425 18.8382 51.3172 18.8972 51.2582 18.9562C51.2582 18.9731 51.2666 18.9899 51.2751 19.0068C51.4437 19.4875 51.781 19.9766 52.1858 20.1958V18.231C52.2617 18.1804 52.3629 18.1467 52.4641 18.1467C52.5653 18.1467 52.6665 18.1804 52.7424 18.231V20.1958C53.1471 19.9766 53.4844 19.4875 53.6531 19.0068C53.6531 18.9899 53.6615 18.9731 53.67 18.9562C53.6109 18.9056 53.5856 18.8466 53.5603 18.7791C53.6953 18.484 53.9988 18.1551 54.2602 18.0286C54.4036 18.2816 54.4795 18.7285 54.4205 19.0405H54.4036ZM52.4472 18.0286C52.1689 18.0286 51.9497 18.2563 51.9497 18.5261C51.9497 18.6611 52.0003 18.7791 52.0846 18.8635V19.1839C51.8569 19.0574 51.6967 18.8129 51.6967 18.5261C51.6967 18.1129 52.034 17.7756 52.4472 17.7756C52.8604 17.7756 53.1977 18.1129 53.1977 18.5261C53.1977 18.8129 53.0375 19.0574 52.8098 19.1839V18.8719C52.8941 18.7791 52.9447 18.6611 52.9447 18.5261C52.9447 18.2479 52.7171 18.0286 52.4472 18.0286ZM44.5204 17.3118L39.2162 21.5451H0.26534C0.282205 21.3005 0.290641 21.0897 0.307506 20.921H39.1066L44.4277 16.6878L61.6895 15.9963C61.6221 16.2156 61.5124 16.4264 61.3859 16.6288L44.512 17.3203L44.5204 17.3118Z" fill="#061C29"/>
<path d="M11.3447 3.25471V6.18931H15.4852L17.6524 3.85344V3.25471H11.3447ZM15.2322 5.60745H11.9266V3.82814H16.8766L15.2322 5.60745Z" fill="#061C29"/>
<path d="M12.7606 1.23904H12.1787V3.03522H12.7606V1.23904Z" fill="#061C29"/>
<path d="M13.7394 1.36551L12.7612 1.60163H12.1794L11.2012 1.36551V1.0535H13.7394V1.36551Z" fill="#061C29"/>
<path d="M10.939 1.4163C10.939 2.11621 10.374 2.68121 9.67409 2.68121C8.97417 2.68121 8.40918 2.11621 8.40918 1.4163C8.40918 0.716377 8.97417 0.151382 9.67409 0.151382C10.374 0.151382 10.939 0.716377 10.939 1.4163Z" fill="#F8952B"/>
<path d="M10.4336 2.25113H8.90723V3.03538H10.4336V2.25113Z" fill="#F8952B"/>
<path d="M13.2163 3.50752H12.5332V5.96989H13.2163V3.50752Z" fill="#061C29"/>
<path d="M14.4983 6.03709L13.7646 6.07082L14.7429 3.38921L15.3753 3.62532L14.4983 6.03709Z" fill="#061C29"/>
<path d="M4.63254 19.2937H6.13357V18.442H4.63254V19.2937ZM4.63254 14.5292H6.13357V13.863H4.63254V14.5292ZM4.63254 18.0963H6.13357V17.2446H4.63254V18.0963ZM4.63254 16.9073H6.13357V16.0556H4.63254V16.9073ZM11.8341 17.3879L9.42235 13.863H6.47931V20.2551H17.6611V17.3964H11.8341V17.3879ZM2.06055 20.2466H4.30366V13.8546H2.06055V20.2466ZM4.64098 15.7098H6.14201V14.8581H4.64098V15.7098ZM4.64098 20.2466H6.14201V19.6226H4.64098V20.2466Z" fill="#061C29"/>
<path d="M8.90723 3.25471V6.18931H11.3443V3.25471H8.90723ZM10.56 5.55686C10.56 5.72551 10.4251 5.86044 10.2565 5.86044H10.0794C9.91072 5.86044 9.7758 5.72551 9.7758 5.55686V5.37977C9.7758 5.21111 9.91072 5.07619 10.0794 5.07619H10.2565C10.4251 5.07619 10.56 5.21111 10.56 5.37977V5.55686ZM10.56 4.22448C10.56 4.39314 10.4251 4.52806 10.2565 4.52806H10.0794C9.91072 4.52806 9.7758 4.39314 9.7758 4.22448V4.04739C9.7758 3.87874 9.91072 3.74381 10.0794 3.74381H10.2565C10.4251 3.74381 10.56 3.87874 10.56 4.04739V4.22448Z" fill="#061C29"/>
<path d="M9.21052 11.8643H15.4845V9.6634H11.2344L9.21052 11.8643ZM13.8991 10.4476C13.8991 10.2874 14.0256 10.1609 14.1858 10.1609H14.4051C14.5653 10.1609 14.6918 10.2874 14.6918 10.4476V11.1813C14.6918 11.3415 14.5653 11.468 14.4051 11.468H14.1858C14.0256 11.468 13.8991 11.3415 13.8991 11.1813V10.4476ZM11.7488 10.4476C11.7488 10.2874 11.8753 10.1609 12.0355 10.1609H12.2547C12.415 10.1609 12.5415 10.2874 12.5415 10.4476V11.1813C12.5415 11.3415 12.415 11.468 12.2547 11.468H12.0355C11.8753 11.468 11.7488 11.3415 11.7488 11.1813V10.4476ZM7.49868 13.5256H9.76709L12.1788 17.0505H15.4929V12.3366H7.49868V13.5256ZM11.7488 13.1124C11.7488 12.9522 11.8753 12.8257 12.0355 12.8257H12.2547C12.415 12.8257 12.5415 12.9522 12.5415 13.1124V13.846C12.5415 14.0063 12.415 14.1328 12.2547 14.1328H12.0355C11.8753 14.1328 11.7488 14.0063 11.7488 13.846V13.1124ZM13.8991 13.1124C13.8991 12.9522 14.0256 12.8257 14.1858 12.8257H14.4051C14.5653 12.8257 14.6918 12.9522 14.6918 13.1124V13.846C14.6918 14.0063 14.5653 14.1328 14.4051 14.1328H14.1858C14.0256 14.1328 13.8991 14.0063 13.8991 13.846V13.1124ZM10.9139 6.61918H7.49023V9.20803H8.5106L10.9139 6.61918ZM11.6054 6.61918L9.20208 9.20803H15.4761V6.61918H11.597H11.6054ZM12.533 8.51655C12.533 8.67677 12.4065 8.80326 12.2463 8.80326H12.0271C11.8668 8.80326 11.7403 8.67677 11.7403 8.51655V7.7829C11.7403 7.62268 11.8668 7.49619 12.0271 7.49619H12.2463C12.4065 7.49619 12.533 7.62268 12.533 7.7829V8.51655ZM14.6834 8.51655C14.6834 8.67677 14.5569 8.80326 14.3967 8.80326H14.1774C14.0172 8.80326 13.8907 8.67677 13.8907 8.51655V7.7829C13.8907 7.62268 14.0172 7.49619 14.1774 7.49619H14.3967C14.5569 7.49619 14.6834 7.62268 14.6834 7.7829V8.51655ZM10.5345 9.65497H7.49023V11.8559H8.51903L10.5429 9.65497H10.5345Z" fill="#061C29"/>
<path d="M38.6761 16.1901H19.5V17.5394H38.6761V16.1901Z" fill="#061C29"/>
<path d="M29.3318 20.2885H32.1905V17.9694H29.3318V20.2885ZM36.019 17.9694V20.2885H37.5621V17.9694H36.019ZM32.6712 20.2885H35.5298V17.9694H32.6712V20.2885ZM25.984 20.2885H28.8427V17.9694H25.984V20.2885ZM20.6123 20.2885H22.1555V17.9694H20.6123V20.2885ZM22.6446 20.2885H25.5033V17.9694H22.6446V20.2885Z" fill="#F8952B"/>
</svg>
